<svg width="22" height="18" viewBox="0 0 22 18" fill="none" xmlns="http://www.w3.org/2000/svg">
<path fill-rule="evenodd" clip-rule="evenodd" d="M11.3492 17.585L6 12.9999H2C0.89543 12.9999 0 12.1045 0 10.9999V6.99995C0 5.89538 0.89543 4.99995 2 4.99995H6L11.3492 0.414919C11.9979 -0.141091 13 0.319819 13 1.17417V16.8257C13 17.6801 11.9979 18.141 11.3492 17.585ZM6 11.4999C6.35807 11.4999 6.70432 11.628 6.97619 11.8611L11.5 15.7386V2.26128L6.97619 6.13883C6.70432 6.37186 6.35807 6.49995 6 6.49995H2C1.72386 6.49995 1.5 6.7238 1.5 6.99995V10.9999C1.5 11.2761 1.72386 11.4999 2 11.4999H6Z" fill="#EAF6FF"/>
<path d="M16.4509 4.60823C16.1909 4.28552 15.7122 4.28779 15.4191 4.58083C15.1261 4.87388 15.1309 5.34636 15.3814 5.67654C15.665 6.05047 15.9002 6.46 16.0806 6.89551C16.357 7.56273 16.4992 8.27783 16.4992 8.99993C16.4992 9.72213 16.357 10.4372 16.0806 11.1044C16.0694 11.1316 16.0579 11.1587 16.0462 11.1858C15.8706 11.591 15.6473 11.9728 15.3814 12.3234C15.1309 12.6536 15.1261 13.126 15.4191 13.4191C15.7122 13.7121 16.1909 13.7144 16.4509 13.3917C16.8688 12.873 17.2113 12.2964 17.4672 11.6787C17.8189 10.8294 18 9.91923 18 8.99993C18 8.08073 17.8189 7.17043 17.4672 6.32119C17.4512 6.28259 17.4348 6.24414 17.4182 6.20586C17.1682 5.63165 16.8427 5.09445 16.4509 4.60823Z" fill="#EAF6FF"/>
<path d="M18.2301 1.76983C18.5328 1.46716 19.0259 1.46545 19.3065 1.78868C20.0816 2.68156 20.7089 3.69492 21.1627 4.79045C21.2318 4.95727 21.2967 5.12559 21.3574 5.29525C21.7822 6.48285 22 7.73602 22 8.99992C22 10.4445 21.7155 11.8749 21.1627 13.2095C20.7089 14.305 20.0816 15.3183 19.3065 16.2112C19.0259 16.5345 18.5328 16.5327 18.2301 16.2301C17.9275 15.9274 17.9302 15.4386 18.2071 15.1122C18.8403 14.3655 19.3547 13.5237 19.7306 12.6163C20.2055 11.4698 20.4499 10.2409 20.4499 8.99992C20.4499 7.75902 20.2055 6.53015 19.7306 5.38364C19.3547 4.47622 18.8403 3.63443 18.2071 2.88775C17.9302 2.5613 17.9275 2.0725 18.2301 1.76983Z" fill="#EAF6FF"/>
</svg>
