<svg width="34" height="34" viewBox="0 0 34 34" fill="none" xmlns="http://www.w3.org/2000/svg">
<path fill-rule="evenodd" clip-rule="evenodd" d="M14.8778 2.47916C8.03174 2.47916 2.48193 8.02896 2.48193 14.875C2.48193 21.721 8.03174 27.2708 14.8778 27.2708C17.6613 27.2708 20.2326 26.3518 22.3013 24.8028L28.6651 31.1667C29.3566 31.8583 30.4779 31.8583 31.1695 31.1667C31.861 30.475 31.861 29.3539 31.1695 28.6623L24.8057 22.2985C26.3545 20.2297 27.2737 17.6586 27.2737 14.875C27.2737 8.02896 21.7237 2.47916 14.8778 2.47916ZM6.0236 14.875C6.0236 9.98497 9.98774 6.02082 14.8778 6.02082C19.7677 6.02082 23.732 9.98497 23.732 14.875C23.732 17.3204 22.7429 19.5316 21.1387 21.1358C19.5344 22.74 17.3233 23.7292 14.8778 23.7292C9.98774 23.7292 6.0236 19.765 6.0236 14.875Z" fill="#EAF6FF"/>
</svg>
