<svg width="34" height="34" viewBox="0 0 34 34" fill="none" xmlns="http://www.w3.org/2000/svg">
<path d="M19.8889 22.7737V21.7737H18.8889H15.1111H14.1111V22.7737V32.129C14.1111 32.4117 13.9741 32.666 13.7527 32.828C13.6049 32.9359 13.4229 33 13.2222 33H1.88889C1.38906 33 1 32.601 1 32.129V16.8395C1 16.1152 1.29034 15.4188 1.81016 14.904L1.81024 14.9039L15.0325 1.80649L15.0325 1.80647C16.118 0.731177 17.882 0.731177 18.9675 1.80647L18.9675 1.80649L32.1897 14.9039L32.1898 14.904C32.7097 15.4188 33 16.1152 33 16.8395V32.129C33 32.601 32.611 33 32.1111 33H20.7778C20.5771 33 20.3951 32.9359 20.2473 32.828C20.0259 32.666 19.8889 32.4117 19.8889 32.129V22.7737Z" stroke="#EAF6FF" stroke-width="2"/>
</svg>
