<svg width="20" height="20" viewBox="0 0 20 20" fill="none" xmlns="http://www.w3.org/2000/svg">
<path d="M9.9999 18C9.9999 17.3096 9.44026 16.75 8.7499 16.75H3.2499V3.25H8.7499C9.44026 3.25 9.9999 2.69036 9.9999 2C9.9999 1.30964 9.44026 0.75 8.7499 0.75H2.9999C1.75726 0.75 0.749903 1.75736 0.749903 3V17C0.749903 18.2426 1.75726 19.25 2.9999 19.25H8.7499C9.44026 19.25 9.9999 18.6904 9.9999 18Z" fill="#EAF6FF"/>
<path d="M13 13.2323L14.9822 11.2501L7.24995 11.2501C6.5596 11.2501 5.99995 10.6905 5.99995 10.0001C5.99995 9.30974 6.5596 8.7501 7.24995 8.7501L14.9822 8.7501L12.9999 6.76783C12.5118 6.27968 12.5118 5.48822 12.9999 5.00007C13.4881 4.51191 14.2795 4.51191 14.7677 5.00007L18.8838 9.11621C19.1183 9.35063 19.25 9.66857 19.25 10.0001C19.25 10.3316 19.1183 10.6496 18.8838 10.884L14.7677 15.0001C14.2796 15.4882 13.4881 15.4882 13 15.0001C12.5118 14.5119 12.5118 13.7205 13 13.2323Z" fill="#EAF6FF"/>
</svg>
