<svg width="16" height="18" viewBox="0 0 16 18" fill="none" xmlns="http://www.w3.org/2000/svg">
<path fill-rule="evenodd" clip-rule="evenodd" d="M0.5 16C0.5 17.1046 1.39543 18 2.5 18H4.5C5.60457 18 6.5 17.1046 6.5 16V2C6.5 0.89543 5.60457 0 4.5 0H2.5C1.39543 0 0.5 0.89543 0.5 2V16ZM5 16C5 16.2761 4.77614 16.5 4.5 16.5H2.5C2.22386 16.5 2 16.2761 2 16V2C2 1.72386 2.22386 1.5 2.5 1.5H4.5C4.77614 1.5 5 1.72386 5 2V16Z" fill="#EAF6FF"/>
<path fill-rule="evenodd" clip-rule="evenodd" d="M11.5 0C10.3954 0 9.5 0.89543 9.5 2V16C9.5 17.1046 10.3954 18 11.5 18H13.5C14.6046 18 15.5 17.1046 15.5 16V2C15.5 0.89543 14.6046 0 13.5 0H11.5ZM11.5 16.5C11.2239 16.5 11 16.2761 11 16V2C11 1.72386 11.2239 1.5 11.5 1.5H13.5C13.7761 1.5 14 1.72386 14 2V16C14 16.2761 13.7761 16.5 13.5 16.5H11.5Z" fill="#EAF6FF"/>
</svg>
