<svg width="18" height="18" viewBox="0 0 18 18" fill="none" xmlns="http://www.w3.org/2000/svg">
<path d="M1.5 1.25C1.5 0.83579 1.16421 0.5 0.75 0.5C0.33579 0.5 0 0.83579 0 1.25V16.75C0 17.1642 0.33579 17.5 0.75 17.5C1.16421 17.5 1.5 17.1642 1.5 16.75V1.25Z" fill="#EAF6FF"/>
<path fill-rule="evenodd" clip-rule="evenodd" d="M18 16.2023C18 16.9864 17.1388 17.4655 16.4726 17.052L4.86888 9.84961C4.23869 9.45851 4.23869 8.54151 4.86888 8.15041L16.4726 0.948033C17.1388 0.534553 18 1.01363 18 1.79767V16.2023ZM16.5 15.3035L6.34435 9.00001L16.5 2.6965V15.3035Z" fill="#EAF6FF"/>
</svg>
