<svg width="18" height="18" viewBox="0 0 18 18" fill="none" xmlns="http://www.w3.org/2000/svg">
<path d="M17.25 0.5C16.8358 0.5 16.5 0.83579 16.5 1.25V16.75C16.5 17.1642 16.8358 17.5 17.25 17.5C17.6642 17.5 18 17.1642 18 16.75V1.25C18 0.83579 17.6642 0.5 17.25 0.5Z" fill="#EAF6FF"/>
<path fill-rule="evenodd" clip-rule="evenodd" d="M1.52736 17.052C0.86121 17.4655 0 16.9864 0 16.2023V1.79767C0 1.01363 0.86121 0.534553 1.52736 0.948033L13.1311 8.15041C13.7613 8.54151 13.7613 9.45851 13.1311 9.84961L1.52736 17.052ZM11.6557 9.00001L1.5 15.3035V2.6965L11.6557 9.00001Z" fill="#EAF6FF"/>
</svg>
