<svg width="22" height="21" viewBox="0 0 22 21" fill="none" xmlns="http://www.w3.org/2000/svg">
<path d="M4.30504 8.50921C5.45716 8.39947 6.38335 7.5133 6.54384 6.36715C6.84976 4.18236 8.73053 2.5 11 2.5C12.8081 2.5 14.3723 3.56639 15.0882 5.11534C15.4388 5.8739 16.1452 6.40711 16.9708 6.53637C18.4034 6.76065 19.5 8.00459 19.5 9.5C19.5 10.6142 18.8926 11.5866 17.9908 12.104C17.4612 12.4078 17 12.9057 17 13.5163V13.6099C17 14.3445 17.6405 14.9319 18.3331 14.6871C20.4694 13.9321 22 11.8948 22 9.5C22 6.75413 19.9878 4.47824 17.3575 4.06645C16.2479 1.66574 13.8185 0 11 0C7.46644 0 4.54439 2.6182 4.06799 6.02047C1.78538 6.23788 0 8.16044 0 10.5C0 12.5572 1.38045 14.292 3.26556 14.8286C3.92954 15.0176 4.5 14.4404 4.50001 13.75C4.50001 13.0597 3.88932 12.5265 3.32978 12.1221C2.8271 11.7588 2.5 11.1676 2.5 10.5C2.5 9.4616 3.29321 8.60558 4.30504 8.50921Z" fill="#EAF6FF"/>
<path d="M13.2324 16.0001L12.2501 15.0178V19.75C12.2501 19.7931 12.2479 19.8358 12.2436 19.8778C12.1796 20.5081 11.6473 21 11.0001 21C10.3097 21 9.75009 20.4404 9.75009 19.75V15.0178L8.76795 15.9999C8.70693 16.0609 8.64117 16.1143 8.57186 16.1601C8.08667 16.4804 7.42732 16.427 7.00018 15.9999C6.51203 15.5117 6.51203 14.7203 7.00018 14.2321L10.1162 11.1161C10.6043 10.628 11.3958 10.628 11.884 11.1161L15.0002 14.2324C15.4883 14.7205 15.4883 15.512 15.0002 16.0001C14.512 16.4883 13.7206 16.4883 13.2324 16.0001Z" fill="#EAF6FF"/>
</svg>
